<svg xmlns="http://www.w3.org/2000/svg" width="16" height="16" viewBox="0 0 16 16">
    <g fill="none" fill-rule="evenodd">
        <g fill="#414141" fill-rule="nonzero">
            <g>
                <g>
                    <g>
                        <g>
                            <g>
                                <g>
                                    <g>
                                        <path d="M8 8.778c1.893 0 3.429-1.568 3.429-3.5 0-1.933-1.536-3.5-3.429-3.5-1.893 0-3.429 1.567-3.429 3.5 0 1.932 1.536 3.5 3.429 3.5zM8 7.61c-1.26 0-2.286-1.047-2.286-2.333C5.714 3.992 6.74 2.944 8 2.944s2.286 1.048 2.286 2.334S9.26 7.61 8 7.61zm4.19 6.611c.631 0 1.143-.522 1.143-1.166v-.623c0-1.803-1.433-3.266-3.2-3.266-.683 0-1.012.389-2.133.389s-1.448-.39-2.133-.39c-1.767 0-3.2 1.464-3.2 3.267v.623c0 .644.512 1.166 1.143 1.166h8.38zm0-1.166H3.81v-.623c0-1.157.923-2.1 2.057-2.1.347 0 .912.39 2.133.39 1.231 0 1.783-.39 2.133-.39 1.134 0 2.057.943 2.057 2.1v.623z" transform="translate(-68 -397) translate(10 138) translate(0 40) translate(20 173) translate(0 36) translate(20) translate(0 8) translate(18 2)"/>
                                    </g>
                                </g>
                            </g>
                        </g>
                    </g>
                </g>
            </g>
        </g>
    </g>
</svg>
