<svg xmlns="http://www.w3.org/2000/svg" width="18" height="18" viewBox="0 0 18 18">
    <path fill="#FC5C81" fill-rule="evenodd" d="M9 16c3.867 0 7-3.133 7-7s-3.133-7-7-7-7 3.133-7 7 3.133 7 7 7zm-2.317-3.568l-1.115-1.117c-.133-.133-.133-.348 0-.48L7.419 9 5.568 7.163c-.133-.133-.133-.348 0-.48l1.117-1.118c.133-.133.348-.133.48 0L9 7.419l1.837-1.851c.133-.133.348-.133.48 0l1.118 1.117c.133.133.133.348 0 .48L10.581 9l1.851 1.837c.133.133.133.348 0 .48l-1.117 1.115c-.133.133-.348.133-.48 0L9 10.581l-1.837 1.851c-.133.133-.348.133-.48 0z"/>
</svg>
