<?xml version="1.0" encoding="utf-8"?>
<!-- Generator: Adobe Illustrator 24.2.3, SVG Export Plug-In . SVG Version: 6.00 Build 0)  -->
<svg version="1.1" id="圖層_1" xmlns="http://www.w3.org/2000/svg" xmlns:xlink="http://www.w3.org/1999/xlink" x="0px" y="0px"
	 viewBox="0 0 18 18" style="enable-background:new 0 0 18 18;" xml:space="preserve">
<style type="text/css">
	.st0{fill:#4B6561;}
</style>
<path class="st0" d="M8,12.7l2.2-0.2l6.4-6.2c0.6-0.5,0.6-1.4,0-1.9l-1.1-1c-0.6-0.5-1.5-0.5-2,0L7.1,9.6l-0.2,2.1
	C6.8,12.3,7.4,12.8,8,12.7L8,12.7z M15,6.3l-1.4-1.4l0.8-0.7c0.1-0.1,0.3-0.1,0.4,0l1.1,1c0.1,0.1,0.1,0.2,0,0.3
	C15.8,5.6,15,6.3,15,6.3z M12.7,15c0.6,0,1.2-0.5,1.2-1.1v-3.4c0-0.2-0.2-0.2-0.3-0.1l-0.8,0.8c0,0-0.1,0.1-0.1,0.1v2.7H4.2V5.6H10
	c0.1,0,0.1,0,0.1-0.1L11,4.8c0.1-0.1,0-0.3-0.1-0.3H4.2C3.5,4.5,3,5,3,5.6v8.2C3,14.5,3.5,15,4.2,15H12.7z M8.1,11.6l0.2-1.5
	l4.5-4.4l1.4,1.4l-4.5,4.4C9.7,11.4,8.1,11.6,8.1,11.6z"/>
</svg>
