<?xml version="1.0" encoding="utf-8"?>
<!-- Generator: Adobe Illustrator 24.2.3, SVG Export Plug-In . SVG Version: 6.00 Build 0)  -->
<svg version="1.1" id="Capa_1" xmlns="http://www.w3.org/2000/svg" xmlns:xlink="http://www.w3.org/1999/xlink" x="0px" y="0px"
	 viewBox="0 0 512 512" style="enable-background:new 0 0 512 512;" xml:space="preserve">
<style type="text/css">
	.st0{fill:#4B6561;}
</style>
<g>
	<path class="st0" d="M510.4,375.1l-21.1-114.6c-6.8-52.4-51.6-91.8-104.4-91.8H127.1c-52.8,0-97.7,39.4-104.4,91.8L1.6,375.1
		c-10.5,57,32.5,110.2,90.1,112.5c54.9,2.2,99-42.6,99.2-96.1c0-0.2-6.2-0.1,130.4-0.1c0,53.3,44.1,98.4,99.2,96.2
		C477.7,485.3,520.9,432.4,510.4,375.1z M183.8,303.1h-25.1v25.1c0,8.3-6.7,15-15,15s-15-6.7-15-15v-25.1h-25.1c-8.3,0-15-6.7-15-15
		c0-8.3,6.7-15,15-15h25.1V248c0-8.3,6.7-15,15-15s15,6.7,15,15v25.1h25.1c8.3,0,15,6.7,15,15C198.8,296.4,192.1,303.1,183.8,303.1z
		 M343.3,289.1c0,8.3-6.7,15-15,15s-15-6.7-15-15v-1c0-8.3,6.7-15,15-15s15,6.7,15,15V289.1z M383.3,329.7
		c-0.8,7.9-7.6,14.2-16.5,13.5c-8.4-0.9-14.3-8.4-13.5-16.4c0.9-8.7,8.9-15,17.9-13.3C379.3,315.1,384,322.4,383.3,329.7
		L383.3,329.7z M383.3,249.5c-0.9,8.5-8.4,14.3-16.5,13.5c-8.4-0.9-14.3-8.4-13.5-16.5c0.9-8.7,8.9-15,17.9-13.3
		C379.3,234.9,384,242.2,383.3,249.5L383.3,249.5z M423.5,289.1c0,8.3-6.7,15-15,15c-8.3,0-15-6.7-15-15v-1c0-8.3,6.7-15,15-15
		c8.3,0,15,6.7,15,15V289.1z"/>
	<path class="st0" d="M217,104.7c-5.9,5.9-5.9,15.4,0,21.3c5.9,5.9,15.4,5.9,21.3,0c9.8-9.8,25.7-9.8,35.5,0
		c5.9,5.9,15.4,5.9,21.3,0s5.9-15.4,0-21.3C273.5,83.2,238.5,83.2,217,104.7z"/>
	<path class="st0" d="M192.9,80.6c34.9-34.9,91.3-34.9,126.2,0c5.9,5.9,15.4,5.9,21.3,0c5.9-5.9,5.9-15.4,0-21.3
		c-46.6-46.6-122.1-46.6-168.8,0c-5.9,5.9-5.9,15.4,0,21.3C177.5,86.4,187,86.4,192.9,80.6L192.9,80.6z"/>
</g>
</svg>
