<svg xmlns="http://www.w3.org/2000/svg" width="18" height="18" viewBox="0 0 18 18">
    <g fill="none" fill-rule="evenodd">
        <g fill="#414141" fill-rule="nonzero">
            <g>
                <g>
                    <path d="M9 16c3.866 0 7-3.133 7-7 0-3.865-3.134-7-7-7S2 5.135 2 9c0 3.867 3.134 7 7 7zm0-1.355c-3.12 0-5.645-2.524-5.645-5.645C3.355 5.881 5.88 3.355 9 3.355c3.119 0 5.645 2.525 5.645 5.645 0 3.12-2.524 5.645-5.645 5.645zm0-7.17c.655 0 1.185-.53 1.185-1.185 0-.654-.53-1.185-1.185-1.185s-1.185.53-1.185 1.185S8.345 7.476 9 7.476zm1.242 5.138c.187 0 .339-.152.339-.339v-.677c0-.187-.152-.339-.34-.339h-.338V8.435c0-.187-.151-.338-.338-.338H7.758c-.187 0-.339.151-.339.338v.678c0 .187.152.339.34.339h.338v1.806h-.339c-.187 0-.339.152-.339.339v.677c0 .187.152.339.34.339h2.483z" transform="translate(-360 -283) translate(340 258) translate(20 25)"/>
                </g>
            </g>
        </g>
    </g>
</svg>
