<?xml version="1.0" encoding="utf-8"?>
<!-- Generator: Adobe Illustrator 24.2.3, SVG Export Plug-In . SVG Version: 6.00 Build 0)  -->
<svg version="1.1" id="圖層_1" xmlns="http://www.w3.org/2000/svg" xmlns:xlink="http://www.w3.org/1999/xlink" x="0px" y="0px"
	 viewBox="0 0 490 490" style="enable-background:new 0 0 490 490;" xml:space="preserve">
<style type="text/css">
	.st0{fill:#FC5C81;}
</style>
<path class="st0" d="M474,261H165.1c-8.8,0-16-7.2-16-16c0-8.8,7.2-16,16-16H474c8.8,0,16,7.2,16,16C490,253.8,482.8,261,474,261z"
	/>
<path class="st0" d="M250.3,346.2c-4.1,0-8.2-1.6-11.3-4.7l-85.2-85.2c-6.2-6.2-6.2-16.4,0-22.6l85.2-85.2c6.2-6.2,16.4-6.2,22.6,0
	c6.2,6.2,6.2,16.4,0,22.6L187.7,245l73.9,73.9c6.2,6.2,6.2,16.4,0,22.6C258.5,344.6,254.4,346.2,250.3,346.2z"/>
<path class="st0" d="M234.3,479.3C105.1,479.3,0,374.2,0,245S105.1,10.7,234.3,10.7c97,0,182.6,58.3,218.1,148.6
	c3.2,8.2-0.8,17.5-9,20.7c-8.2,3.2-17.5-0.8-20.7-9C392,93,318.1,42.6,234.3,42.6C122.8,42.6,32,133.4,32,245
	s90.8,202.4,202.4,202.4c83.7,0,157.7-50.4,188.4-128.3c3.2-8.2,12.5-12.2,20.7-9c8.2,3.2,12.2,12.5,9,20.7
	C416.9,421,331.3,479.3,234.3,479.3z"/>
</svg>
