<svg xmlns="http://www.w3.org/2000/svg" width="19" height="18" viewBox="0 0 19 18">
    <path d="M16.15 3H2.85c-.734 0-1.33.576-1.33 1.286v9.428c0 .71.596 1.286 1.33 1.286h13.3c.734 0 1.33-.576 1.33-1.286V4.286c0-.71-.596-1.286-1.33-1.286zm0 10.714H2.85V4.286h13.3v9.428zM7.283 9c.978 0 1.774-.769 1.774-1.714 0-.946-.796-1.715-1.774-1.715s-1.773.77-1.773 1.715C5.51 8.23 6.305 9 7.283 9zm-2.482 3.429h4.965c.344 0 .62-.23.62-.515V11.4c0-.852-.833-1.543-1.861-1.543-.3 0-.518.214-1.242.214-.745 0-.925-.214-1.241-.214-1.028 0-1.862.691-1.862 1.543v.514c0 .284.277.515.62.515zm6.694-1.715h3.103c.122 0 .222-.096.222-.214v-.429c0-.117-.1-.214-.222-.214h-3.103c-.122 0-.222.097-.222.214v.429c0 .118.1.214.222.214zm0-1.714h3.103c.122 0 .222-.096.222-.214v-.429c0-.118-.1-.214-.222-.214h-3.103c-.122 0-.222.096-.222.214v.429c0 .118.1.214.222.214zm0-1.714h3.103c.122 0 .222-.097.222-.215v-.428c0-.118-.1-.214-.222-.214h-3.103c-.122 0-.222.096-.222.214v.428c0 .118.1.215.222.215z"/>
</svg>
