<svg xmlns="http://www.w3.org/2000/svg" width="18" height="18" viewBox="0 0 18 18">
    <path fill="#414141" d="M6.9 10.188c1.739 0 3.15-1.386 3.15-3.094S8.639 4 6.9 4C5.161 4 3.75 5.386 3.75 7.094s1.411 3.093 3.15 3.093zm0-1.032c-1.16 0-2.1-.924-2.1-2.062 0-1.139.94-2.063 2.1-2.063 1.16 0 2.1.924 2.1 2.063-.002 1.136-.943 2.06-2.1 2.062zM15.3 15c.386 0 .7-.308.7-.688v-3.437c0-.38-.314-.688-.7-.688h-.7v-1.03c0-.95-.784-1.72-1.75-1.72s-1.75.77-1.75 1.72v1.03h-.7c-.386 0-.7.308-.7.688v3.438c0 .379.314.687.7.687h4.9zm-1.75-4.813h-1.4v-1.03c0-.38.314-.688.7-.688.386 0 .7.308.7.687v1.031zM8.799 15c-.173-.387-.149-.66-.149-1.031h-5.6v-.55c.002-1.023.849-1.855 1.89-1.857.32 0 .838.344 1.96.344.925 0 1.52-.251 1.75-.31v-.721c0-.09.015-.236.033-.324-.573.062-.875.324-1.783.324-1.03 0-1.33-.344-1.96-.344-1.623 0-2.94 1.294-2.94 2.888v.55C2 14.538 2.47 15 3.05 15h5.749zm6.151-1.031h-4.2v-2.75h4.2v2.75zm-2.1-.688c.386 0 .7-.308.7-.687 0-.38-.314-.688-.7-.688-.386 0-.7.308-.7.688 0 .38.314.687.7.687z"/>
</svg>
