<?xml version="1.0" encoding="utf-8"?>
<!-- Generator: Adobe Illustrator 24.2.3, SVG Export Plug-In . SVG Version: 6.00 Build 0)  -->
<svg version="1.1" id="圖層_1" xmlns="http://www.w3.org/2000/svg" xmlns:xlink="http://www.w3.org/1999/xlink" x="0px" y="0px"
	 viewBox="0 0 18 18" style="enable-background:new 0 0 18 18;" xml:space="preserve">
<style type="text/css">
	.st0{fill:#4B6561;}
</style>
<path class="st0" d="M15.3,15.9l0.6-0.6c0.1-0.1,0.1-0.3,0-0.5l-3.3-3.3c-0.1-0.1-0.1-0.1-0.2-0.1H12c0.9-1,1.4-2.3,1.4-3.7
	c0-3.1-2.5-5.7-5.7-5.7C4.5,2,2,4.5,2,7.7c0,3.1,2.5,5.7,5.7,5.7c1.4,0,2.7-0.5,3.7-1.4v0.4c0,0.1,0,0.2,0.1,0.2l3.3,3.3
	C14.9,16,15.2,16,15.3,15.9L15.3,15.9z M7.7,12.1c-2.4,0-4.4-2-4.4-4.4c0-2.4,2-4.4,4.4-4.4c2.4,0,4.4,2,4.4,4.4
	C12.1,10.1,10.1,12.1,7.7,12.1z"/>
</svg>
