<?xml version="1.0" encoding="utf-8"?>
<!-- Generator: Adobe Illustrator 24.2.3, SVG Export Plug-In . SVG Version: 6.00 Build 0)  -->
<svg version="1.1" id="圖層_1" xmlns="http://www.w3.org/2000/svg" xmlns:xlink="http://www.w3.org/1999/xlink" x="0px" y="0px"
	 viewBox="0 0 18 18" style="enable-background:new 0 0 18 18;" xml:space="preserve">
<style type="text/css">
	.st0{fill:#4B6561;}
</style>
<path class="st0" d="M10.9,15.8c0.3-0.1,0.5-0.3,0.5-0.7v-1c0.3-0.1,0.7-0.4,1-0.5l0.9,0.5c0.3,0.2,0.6,0.1,0.8-0.1
	c0.9-0.9,1.5-1.9,1.9-3.1c0.1-0.3-0.1-0.6-0.3-0.8l-0.9-0.5c0-0.4,0-0.7,0-1.1l0.9-0.5c0.3-0.2,0.4-0.5,0.3-0.8
	c-0.3-1.2-1-2.3-1.9-3.1c-0.2-0.2-0.6-0.3-0.8-0.1l-0.9,0.5c-0.2-0.2-0.7-0.4-1-0.5v-1c0-0.3-0.2-0.6-0.5-0.7
	c-1.2-0.3-2.5-0.3-3.7,0C6.8,2.3,6.6,2.6,6.6,2.9v1c-0.3,0.1-0.7,0.4-1,0.5L4.7,3.9C4.5,3.8,4.1,3.8,3.9,4.1C3,4.9,2.4,6,2,7.2
	C1.9,7.5,2.1,7.8,2.3,7.9l0.9,0.5c0,0.1,0,0.4,0,0.5c0,0.1,0,0.4,0,0.5l-0.9,0.5c-0.3,0.2-0.4,0.5-0.3,0.8c0.3,1.2,1,2.3,1.9,3.1
	c0.2,0.2,0.6,0.3,0.8,0.1l0.9-0.5c0.2,0.2,0.7,0.4,1,0.5v1c0,0.3,0.2,0.6,0.5,0.7C8.4,16.1,9.6,16.1,10.9,15.8z M9,14.6
	c-0.3,0-0.7,0-1-0.1v-1.4c-1.2-0.4-1.3-0.5-2.2-1.2l-1.3,0.7c-0.4-0.4-0.8-1.1-1-1.7l1.3-0.7c-0.2-1.2-0.2-1.3,0-2.5L3.5,7
	c0.2-0.6,0.6-1.2,1-1.7l1.3,0.7C6.7,5.3,6.9,5.3,8,4.9V3.4c0.3,0,0.7-0.1,1-0.1s0.7,0,1,0.1v1.4c1.1,0.4,1.3,0.5,2.2,1.2l1.3-0.7
	c0.4,0.4,0.8,1.2,1,1.7l-1.3,0.7c0.2,1.2,0.2,1.3,0,2.5l1.3,0.7c-0.2,0.5-0.6,1.2-1,1.7l-1.3-0.7c-0.9,0.8-1.1,0.8-2.2,1.2v1.4
	C9.7,14.6,9.3,14.6,9,14.6z M9,11.7c1.5,0,2.8-1.2,2.8-2.7S10.5,6.3,9,6.3S6.2,7.5,6.2,9S7.5,11.7,9,11.7z M9,10.4
	c-0.8,0-1.4-0.6-1.4-1.4S8.2,7.6,9,7.6s1.4,0.6,1.4,1.4S9.8,10.4,9,10.4z"/>
</svg>
