<?xml version="1.0" encoding="utf-8"?>
<!-- Generator: Adobe Illustrator 24.2.3, SVG Export Plug-In . SVG Version: 6.00 Build 0)  -->
<svg version="1.1" id="Capa_1" xmlns="http://www.w3.org/2000/svg" xmlns:xlink="http://www.w3.org/1999/xlink" x="0px" y="0px"
	 viewBox="0 0 512 512" style="enable-background:new 0 0 512 512;" xml:space="preserve">
<style type="text/css">
	.st0{fill:#4B6561;}
</style>
<g>
	<path class="st0" d="M81,407V62.6C63.5,68.8,51,85.4,51,105v362c0,24.8,20.2,45,45,45h260c19.6,0,36.2-12.5,42.4-30H156
		C114.6,482,81,448.4,81,407L81,407z"/>
	<path class="st0" d="M416,0H156c-24.8,0-45,20.2-45,45v362c0,24.8,20.2,45,45,45h260c24.8,0,45-20.2,45-45V45
		C461,20.2,440.8,0,416,0z M260.2,336.4l-42.4,42.4c-5.9,5.9-15.4,5.9-21.2,0l-21.2-21.2c-5.9-5.9-5.9-15.4,0-21.2s15.4-5.9,21.2,0
		l10.6,10.6l31.8-31.8c5.9-5.9,15.4-5.9,21.2,0C266.1,321,266.1,330.5,260.2,336.4L260.2,336.4z M260.2,216.4l-42.4,42.4
		c-5.9,5.9-15.4,5.9-21.2,0l-21.2-21.2c-5.9-5.9-5.9-15.4,0-21.2s15.4-5.9,21.2,0l10.6,10.6l31.8-31.8c5.9-5.9,15.4-5.9,21.2,0
		C266.1,201,266.1,210.5,260.2,216.4L260.2,216.4z M260.2,96.4l-42.4,42.4c-5.9,5.9-15.4,5.9-21.2,0l-21.2-21.2
		c-5.9-5.9-5.9-15.4,0-21.2s15.4-5.9,21.2,0l10.6,10.6L239,75.2c5.9-5.9,15.4-5.9,21.2,0C266.1,81,266.1,90.5,260.2,96.4z
		 M387.8,392h-80c-8.3,0-15-6.7-15-15s6.7-15,15-15h80c8.3,0,15,6.7,15,15S396.1,392,387.8,392z M387.8,332h-80c-8.3,0-15-6.7-15-15
		s6.7-15,15-15h80c8.3,0,15,6.7,15,15S396.1,332,387.8,332z M387.8,272h-80c-8.3,0-15-6.7-15-15s6.7-15,15-15h80c8.3,0,15,6.7,15,15
		S396.1,272,387.8,272z M387.8,212h-80c-8.3,0-15-6.7-15-15s6.7-15,15-15h80c8.3,0,15,6.7,15,15S396.1,212,387.8,212z M387.8,152
		h-80c-8.3,0-15-6.7-15-15s6.7-15,15-15h80c8.3,0,15,6.7,15,15S396.1,152,387.8,152z M387.8,92h-80c-8.3,0-15-6.7-15-15
		s6.7-15,15-15h80c8.3,0,15,6.7,15,15S396.1,92,387.8,92z"/>
</g>
</svg>
