<svg xmlns="http://www.w3.org/2000/svg" width="18" height="18" viewBox="0 0 18 18">
    <path fill="#FC5C81" fill-rule="evenodd" d="M12.857 16c.71 0 1.286-.588 1.286-1.313V5.5h.428c.237 0 .429-.196.429-.438v-.437c0-.242-.192-.438-.429-.438h-2.207l-.91-1.55c-.189-.32-.614-.585-.992-.63L10.35 2h-2.7c-.402 0-.896.285-1.103.637l-.911 1.55H3.429c-.237 0-.429.196-.429.438v.438c0 .241.192.437.429.437h.428v9.188c0 .724.576 1.312 1.286 1.312h7.714zM10.865 4.188h-3.73l.468-.796c.026-.044.087-.08.138-.08h2.518c.05 0 .112.036.138.08l.468.796zm1.992 10.5H5.143V5.5h7.714v9.188zm-2.036-1.313c.178 0 .322-.147.322-.328V7.14c0-.182-.144-.329-.322-.329h-.642c-.178 0-.322.147-.322.329v5.906c0 .181.144.328.322.328h.642zm-3 0c.178 0 .322-.147.322-.328V7.14c0-.182-.144-.329-.322-.329H7.18c-.178 0-.322.147-.322.329v5.906c0 .181.144.328.322.328h.642z"/>
</svg>
