<?xml version="1.0" encoding="utf-8"?>
<!-- Generator: Adobe Illustrator 24.2.3, SVG Export Plug-In . SVG Version: 6.00 Build 0)  -->
<svg version="1.1" id="圖層_1" xmlns="http://www.w3.org/2000/svg" xmlns:xlink="http://www.w3.org/1999/xlink" x="0px" y="0px"
	 viewBox="0 0 300 300" style="enable-background:new 0 0 300 300;" xml:space="preserve">
<style type="text/css">
	.st0{fill:#d4e2e2;}
	.st1{fill:#4B6561;}
</style>
<rect class="st0" width="300" height="300"/>
<g>
	<path class="st1" d="M82.2,155.6c0,1.1,0,2.5-0.2,3.6c-0.2,1.1-1,1.4-1.9,1c-1-0.4-1.2-1-0.6-2c0.4-0.8,0.8-1.8,1.1-2.9
		c0.1-0.5,0.5-0.6,0.9-0.6C81.9,154.9,82.2,155.1,82.2,155.6z M79.3,153.3c-0.1-1,0.4-1.5,1.5-1.5l2.6-0.1v-1.1h-2.7
		c-0.6,0-1-0.4-1-1c0-0.6,0.4-1,1-1h2.7v-0.9h-2c-1,0-1.6-0.6-1.6-1.6v-5.7c0-1,0.6-1.6,1.6-1.6h7.7c1,0,1.6,0.6,1.6,1.6v5.7
		c0,1-0.6,1.6-1.6,1.6H87v0.9h2.2c0.6,0,1,0.4,1,1c0,0.6-0.4,1-1,1H87v0.9c0.8-0.1,1.5-0.2,2.3-0.3c0.6-0.1,0.9,0.1,1,0.6
		c0.1,0.6-0.2,0.9-0.7,1.1c-2.5,0.8-5.6,1.5-8.5,1.7C80.1,154.7,79.4,154.3,79.3,153.3z M82.4,141v0.3c0.1-0.1,0.2-0.1,0.3-0.1
		c0.3-0.1,0.6,0.1,0.7,0.5c0.2,0.6,0.5,1.4,0.7,2.3v-3.2h-1.4C82.5,140.7,82.4,140.8,82.4,141z M84.1,145.8v-0.7
		c-0.1,0.1-0.3,0.2-0.5,0.3c-0.5,0.1-0.7-0.1-0.8-0.7c-0.1-0.8-0.2-1.5-0.4-2.2v3c0,0.2,0.1,0.3,0.3,0.3H84.1z M85.4,158.6
		c0.1,0.9-0.2,1.4-1.1,1.4c-0.9,0.1-1.4-0.3-1.3-1.2c0-1,0.1-2.2,0-3.3c0-0.5,0.2-0.8,0.6-0.9c0.4,0,0.7,0.1,0.9,0.6
		C84.9,156.1,85.2,157.4,85.4,158.6z M88.2,157.5c0.2,0.8,0.1,1.4-0.7,1.6c-0.9,0.2-1.4-0.1-1.5-1c-0.1-1.1-0.4-2.1-0.6-2.9
		c-0.1-0.5,0-0.8,0.5-0.9c0.4-0.1,0.8,0,1,0.4C87.5,155.5,87.9,156.5,88.2,157.5z M86.3,140.7v3.8c0.2-0.8,0.4-1.8,0.5-2.7
		c0-0.5,0.4-0.7,0.8-0.6c0.3,0,0.5,0.1,0.6,0.3V141c0-0.2-0.1-0.3-0.3-0.3H86.3z M88.2,145.5v-3c-0.1,0.8-0.4,1.7-0.6,2.4
		c-0.1,0.4-0.4,0.5-0.8,0.5c-0.2,0-0.3-0.1-0.4-0.3v0.7h1.5C88,145.8,88.2,145.7,88.2,145.5z M96.8,144.6v4.1h1.9
		c1,0,1.6,0.6,1.6,1.6v8.6c0,0.9-0.6,1.4-1.7,1.4s-1.7-0.5-1.7-1.4v-0.5h-3.1v0.5c0,0.9-0.6,1.4-1.7,1.4s-1.7-0.5-1.7-1.4v-1.2
		c0,0-0.1,0.1-0.2,0.1c-0.7,0.3-1.3,0.1-1.5-0.7c-0.2-0.8-0.6-1.7-0.9-2.5c-0.2-0.5-0.1-0.7,0.3-0.9c0.4-0.2,0.7-0.1,1,0.2
		c0.5,0.5,0.9,1.1,1.3,1.8v-5.4c0-1,0.6-1.6,1.6-1.6h1.2v-9.4c0-1,0.6-1.6,1.8-1.6c1.2,0,1.8,0.6,1.8,1.6v3.2h3c0.6,0,1,0.4,1,1.1
		c0,0.7-0.4,1.1-1,1.1H96.8z M96.6,150.7h-2.5c-0.2,0-0.3,0.1-0.3,0.3v5.5h3.1V151C96.9,150.8,96.8,150.7,96.6,150.7z"/>
	<path class="st1" d="M124.8,156.3c0,0.6-0.3,0.9-0.9,0.9h-7.8v0.3c0,2.6-2.8,3.6-6.9,2c-0.5-0.2-0.7-0.6-0.6-1
		c0.1-0.5,0.4-0.7,1.1-0.6c2.3,0.3,2.6,0.2,2.6-0.7h-8.1c-0.6,0-0.9-0.3-0.9-0.9c0-0.6,0.3-0.9,0.9-0.9h8.1v-0.6H106
		c-0.6,0-0.9-0.3-0.9-0.9s0.3-0.9,0.9-0.9h6.2v-0.5c-1.8,0-3.7,0-5.4,0c-0.6,0-0.8-0.3-0.8-0.8c0-0.5,0.2-0.8,0.8-0.8
		c4.6-0.1,9.1-0.3,12.6-1.1c0.1,0,0.3,0,0.4,0c-0.3-0.2-0.6-0.3-0.8-0.5c-0.9,0.4-2,0.6-3.2,0.8c-0.5,0.1-1-0.1-1.1-0.6
		c-0.1-0.6,0.1-0.8,0.7-1c0.7-0.2,1.4-0.4,2-0.6c-0.7-0.7-1.2-1.5-1.5-2.3h-0.2c-0.6,0-0.9-0.3-0.9-0.9v-0.1c-0.3,0-0.5-0.1-0.6-0.4
		c0,0,0,0,0,0v0.1c0,0.8-0.5,1.3-1.3,1.3h-2v0.4h3.4c0.5,0,0.8,0.3,0.8,0.8s-0.3,0.8-0.8,0.8h-3.4v1.3h0.8c0.1,0,0.2,0,0.2-0.2v-0.1
		c0-0.6,0.4-0.9,1.2-0.9c0.8,0,1.2,0.2,1.2,0.9v0.6c0,0.8-0.5,1.3-1.3,1.3h-7.5c-0.8,0-1.3-0.5-1.3-1.3v-0.6c0-0.6,0.5-0.9,1.2-0.9
		c0.8,0,1.2,0.3,1.2,0.9v0.1c0,0.1,0.1,0.2,0.2,0.2h0.8v-1.3h-3.4c-0.5,0-0.8-0.3-0.8-0.8s0.3-0.8,0.8-0.8h3.4v-0.4h-2
		c-0.8,0-1.3-0.5-1.3-1.3V142c0-0.8,0.5-1.3,1.3-1.3h2v-0.4h-3.2c-0.5,0-0.8-0.3-0.8-0.8c0-0.5,0.3-0.8,0.8-0.8h3.2v0
		c0-0.7,0.6-1.1,1.6-1.1s1.6,0.4,1.6,1.1v0h3.2c0.5,0,0.8,0.3,0.8,0.8c0,0.5-0.3,0.8-0.8,0.8h-3.2v0.4h2c0.8,0,1.3,0.5,1.3,1.3v1.2
		c0,0,0.1-0.1,0.1-0.2c1-0.9,1.3-1.4,1.3-3c0-1.1,0.6-1.6,1.6-1.6h3.5c1,0,1.6,0.6,1.6,1.6v0.5c0,0.6,0.1,0.7,0.7,0.7
		c0.2,0,0.5,0,0.6-0.1c0.7-0.1,1.1,0.1,1.2,0.7c0.2,0.7-0.2,1.2-0.8,1.4c-0.4,0.2-1.1,0.2-2.2,0.2c-1.4,0-2.3-0.3-2.3-1.6v-1.2
		c0-0.2-0.1-0.3-0.3-0.3h-0.9c-0.2,0-0.3,0.1-0.3,0.3c-0.1,1.4-0.6,2.3-1.4,2.9h5.1c1.3,0,1.8,0.9,1.3,1.9c-0.4,0.9-1,1.6-1.7,2.2
		c0.5,0.1,0.9,0.2,1.5,0.3c0.9,0.1,1.3,0.7,1.1,1.6c-0.2,0.9-0.8,1.2-1.7,1c-0.6-0.1-1.1-0.3-1.6-0.5c0.1,0.1,0.2,0.3,0.3,0.5
		c0.1,0.6-0.3,1.3-1.1,1.4c-1.1,0.1-2.4,0.2-3.7,0.3v0.6h6c0.6,0,0.9,0.3,0.9,0.9s-0.3,0.9-0.9,0.9h-6v0.6h7.8
		C124.5,155.4,124.8,155.7,124.8,156.3z M107.7,142h-1c-0.1,0-0.2,0.1-0.2,0.2v0.2h1.2V142z M107.7,143.7h-1.2v0.2
		c0,0.1,0.1,0.2,0.2,0.2h1V143.7z M111.7,142.2c0-0.1-0.1-0.2-0.2-0.2h-1v0.5h1.2V142.2z M111.7,143.7h-1.2v0.5h1
		c0.1,0,0.2-0.1,0.2-0.2V143.7z M119,146.8c0.4-0.3,0.8-0.6,1.1-1c0.2-0.2,0-0.4-0.2-0.4h-2.4C117.9,146,118.4,146.5,119,146.8z"/>
	<path class="st1" d="M127.2,158c0-0.8,0.4-1.2,1.2-1.2h6.8v-17.1c0-1.2,0.7-1.8,2-1.8s2,0.6,2,1.8v6.1h5.7c0.7,0,1.2,0.4,1.2,1.2
		s-0.4,1.2-1.2,1.2h-5.7v8.6h8.4c0.8,0,1.2,0.5,1.2,1.2s-0.4,1.2-1.2,1.2h-19.2C127.6,159.2,127.2,158.8,127.2,158z"/>
	<path class="st1" d="M156.9,143.4v15.5c0,1-0.6,1.5-1.8,1.5s-1.8-0.5-1.8-1.5v-9.2c-0.3,0.3-0.6,0.7-0.9,1
		c-0.4,0.4-0.9,0.5-1.2,0.1c-0.3-0.3-0.3-0.8,0-1.2c1.4-2.4,2.5-6.6,3.2-10.4c0.2-1.3,1.1-1.7,2.3-1.5c1.1,0.1,1.6,1,1.4,2
		C157.8,140.8,157.4,142.1,156.9,143.4z M172.8,153.7c0,0.6-0.3,0.9-0.9,0.9h-2.3v2.9c0,2.7-2.8,3.6-6,2c-0.5-0.2-0.6-0.6-0.5-1.1
		c0.1-0.4,0.5-0.6,1-0.6c1.5,0.2,1.8-0.1,1.8-1.1v-2.1h-5.5c0.7,0.3,1.4,0.7,2.1,1.1c0.9,0.5,1,1.4,0.4,2.1
		c-0.6,0.7-1.4,0.7-2.1-0.1c-0.6-0.7-1.2-1.3-1.8-1.9c-0.3-0.3-0.4-0.7-0.2-1.1l0.1-0.1h-0.7c-0.6,0-0.9-0.3-0.9-0.9
		c0-0.6,0.3-0.9,0.9-0.9h7.7v-0.6c0-0.2,0-0.4,0.1-0.6c-2.2,0.4-4.7,0.7-7.1,0.8c-0.9,0-1.5-0.5-1.5-1.4c0-0.9,0.4-1.5,1.4-1.4
		c1.3,0,2.7,0,3.9,0v-1.1h-3.1c-1,0-1.6-0.6-1.6-1.6v-3.3c0-1,0.6-1.6,1.6-1.6h3.2v-0.7h-4.1c-0.6,0-0.9-0.3-0.9-0.9
		s0.3-0.9,0.9-0.9h4v-0.6c0-0.9,0.6-1.4,1.8-1.4s1.8,0.5,1.8,1.4v0.6h4.7c0.6,0,0.9,0.3,0.9,0.9s-0.3,0.9-0.9,0.9h-4.7v0.7h3.2
		c1,0,1.6,0.6,1.6,1.6v3.3c0,0.9-0.4,1.4-1.2,1.5c0.7,0.3,1.3,0.7,1.9,1.2c0.8,0.6,0.9,1.3,0.3,2c-0.6,0.7-1.4,0.7-2-0.1l-0.6-0.7
		c-0.2,0-0.4,0.1-0.6,0.1c0.4,0.2,0.6,0.6,0.6,1.2v0.6h2.3C172.5,152.8,172.8,153.1,172.8,153.7z M161.3,144.5h1.8v-0.7h-1.5
		c-0.2,0-0.3,0.1-0.3,0.3V144.5z M163.1,146.8V146h-1.8v0.4c0,0.2,0.1,0.3,0.3,0.3H163.1z M166.3,144.5h1.8v-0.4
		c0-0.2-0.1-0.3-0.3-0.3h-1.5V144.5z M166.3,146.8h1.5c0.2,0,0.3-0.1,0.3-0.3V146h-1.8V146.8z M166.5,149.6l1.8-0.1l0,0
		c-0.3-0.3-0.4-0.6-0.2-0.9h-1.5V149.6z"/>
	<path class="st1" d="M195.7,140.1v19c0,1-0.6,1.3-1.8,1.3c-1.1,0-1.8-0.3-1.8-1.3v0h-12.3v0.1c0,1-0.6,1.3-1.8,1.3
		c-1.2,0-1.8-0.2-1.8-1.3v-19c0-1,0.6-1.6,1.6-1.6h16.2C195.1,138.6,195.7,139.1,195.7,140.1z M192.1,157.1v-16.3
		c0-0.2-0.1-0.3-0.3-0.3h-11.7c-0.2,0-0.3,0.1-0.3,0.3v16.3H192.1z M191.8,146.9c0,0.6-0.3,0.8-0.8,0.8H181c-0.6,0-0.8-0.3-0.8-0.8
		c0-0.6,0.3-0.8,0.8-0.8h3.3v-0.8h-2c-1,0-1.3-0.3-1.3-1.3v-1.4c0-1,0.3-1.3,1.3-1.3h7.2c1,0,1.3,0.3,1.3,1.3v1.4
		c0,1-0.3,1.3-1.3,1.3h-1.8v0.8h3.3C191.5,146.1,191.8,146.4,191.8,146.9z M191.3,149.9v5c0,1-0.6,1.6-1.6,1.6h-7.4
		c-1,0-1.6-0.6-1.6-1.6v-5c0-1,0.6-1.6,1.6-1.6h7.4C190.7,148.4,191.3,148.9,191.3,149.9z M188.7,150.4c0-0.2-0.1-0.3-0.3-0.3h-4.8
		c-0.2,0-0.3,0.1-0.3,0.3v4.2c0,0.2,0.1,0.3,0.3,0.3h4.8c0.2,0,0.3-0.1,0.3-0.3V150.4z M188.1,151.6v1.6c0,0.8-0.4,1-1.2,1h-1.8
		c-0.8,0-1.2-0.2-1.2-1v-1.6c0-0.8,0.4-1,1.2-1h1.8C187.7,150.6,188.1,150.8,188.1,151.6z M184.3,143.7h3.3c0.2,0,0.3-0.1,0.3-0.3
		v-0.3c0-0.2-0.1-0.3-0.3-0.3h-3.3c-0.2,0-0.3,0.1-0.3,0.3v0.3C184,143.6,184.1,143.7,184.3,143.7z M186.4,152.2
		c0-0.2-0.1-0.2-0.2-0.2h-0.4c-0.2,0-0.2,0.1-0.2,0.2v0.5c0,0.2,0.1,0.2,0.2,0.2h0.4c0.2,0,0.2-0.1,0.2-0.2V152.2z"/>
	<path class="st1" d="M220,145.1c0,0.7-0.4,1.2-1.1,1.2h-13v0.6c0,0.8,0,1.5-0.1,2.3h10c1.1,0,1.6,0.7,1.6,1.7v7.7
		c0,1.2-0.7,1.8-1.9,1.8s-1.9-0.6-1.9-1.8v-6.8c0-0.2-0.1-0.3-0.3-0.3h-7.8c-0.6,3.9-2.1,6.8-4.4,8.5c-0.5,0.4-1,0.3-1.3-0.1
		c-0.4-0.4-0.3-0.9,0-1.4c1.8-2.7,2.2-4.8,2.2-12.3v-6.4c0-1.2,0.7-1.8,1.9-1.8s1.9,0.6,1.9,1.8v4.2h5.9v-4.7c0-1.2,0.7-1.8,1.9-1.8
		s1.9,0.5,1.9,1.8v4.7h3.2C219.6,143.9,220,144.4,220,145.1z"/>
</g>
</svg>
