<svg xmlns="http://www.w3.org/2000/svg" width="18" height="18" viewBox="0 0 18 18">
    <g fill="none" fill-rule="evenodd">
        <g fill="#2193D3" fill-rule="nonzero">
            <g>
                <g>
                    <g>
                        <g>
                            <g>
                                <path d="M9.937 11.998c.312 0 .563-.25.563-.562V7.498h2.055c.418 0 .626-.504.33-.799L9.32 3.132c-.176-.176-.464-.176-.64 0L5.114 6.699c-.295.295-.087.8.33.8H7.5v3.937c0 .311.25.562.562.562h1.875zm4.5 3c.312 0 .563-.25.563-.562V11.81c0-.312-.25-.563-.563-.563H11.25v.188c0 .724-.588 1.312-1.313 1.312H8.062c-.724 0-1.312-.588-1.312-1.312v-.188H3.562c-.311 0-.562.251-.562.563v2.625c0 .311.25.562.562.562h10.875zm-2.812-.656c-.258 0-.469-.211-.469-.469s.211-.469.469-.469.469.211.469.47c0 .257-.211.468-.469.468zm1.5 0c-.258 0-.469-.211-.469-.469s.211-.469.469-.469.469.211.469.47c0 .257-.211.468-.469.468z" transform="translate(-1138 -278) translate(90 72) translate(30 190) translate(1009 8) translate(9 7.438) translate(0 .563)"/>
                            </g>
                        </g>
                    </g>
                </g>
            </g>
        </g>
    </g>
</svg>
